<?xml version="1.0" encoding="utf-8" ?><svg xmlns="http://www.w3.org/2000/svg" xmlns:xlink="http://www.w3.org/1999/xlink" width="328" height="330" viewBox="0 0 328 330"><path fill="#010303" d="M153.334 2.1577C155.415 1.8767 162.218 1.01052 164.113 1.0894C169.72 1.32283 184.92 2.85605 189.379 5.08059C190.16 5.68901 193.845 6.26211 195.304 6.7275C197.621 7.12015 203.451 8.02041 205.444 6.93604C206.087 7.3012 210.542 8.08867 211.824 8.58709C216.802 10.5225 227.04 12.9626 231.151 15.9711C232 17.9471 235.267 17.6488 236.789 19.1552L236.664 19.4917C235.654 19.0978 234.35 18.513 233.309 18.4041L233.293 18.6814C233.825 19.1675 234.2 19.1926 234.92 19.3886L234.774 19.8598C233.692 20.1786 233.164 19.3131 232.489 19.674C233.371 20.1581 234.352 20.4325 235.239 20.9198C243.339 25.3706 251.466 29.7682 258.936 35.2475C260.844 36.6472 262.843 38.08 264.811 39.4068C265.98 40.7467 268.157 42.2336 269.636 43.3793C271.295 45.9091 274.167 47.7992 276.33 49.9261C277.525 51.1009 283.488 57.9365 284.456 58.217L285.291 58.7543C286.141 60.2529 291.752 68.5812 292.949 69.2928C293.167 69.9271 294.757 72.5712 295.391 72.7177C297.525 75.0018 307.381 93.6804 307.736 93.8883L308.131 94.7098C310.53 98.1007 313.331 107.939 314.559 109.386C316.099 112.176 316.438 115.629 317.47 118.468C319.766 124.784 320.976 130.888 322.005 137.512C322.205 138.8 322.807 140.476 322.778 141.709C322.952 141.219 323 140.883 323.092 140.38C323.724 141.686 323.075 144.527 323.382 145.171C324.878 148.307 325.342 149.205 325.348 152.952C325.614 152.152 325.511 150.626 325.496 149.721L325.984 149.676L326.105 149.285C326.325 150.374 326.093 150.027 326.925 150.624C327.038 153.166 327.15 155.19 328 157.655L328 170.134C326.64 173.695 327.384 177.464 326.826 181.078C326.128 184.806 325.004 188.384 324.206 192.102C323.677 194.569 323.773 197.274 323.271 199.767C318.778 222.087 308.583 243.596 294.984 261.798C293.914 263.23 292.852 264.5 291.828 265.952L291.406 265.118C289.423 264.783 286.852 267.224 289.45 268.646L289.19 268.999C287.771 269.559 287.24 269.362 285.751 270.164C285.55 269.765 285.635 269.95 285.676 269.404C283 270.55 280.819 274.828 278.88 276.901C277.485 278.392 275.243 279.611 273.83 281.009C270.807 284.001 267.924 286.67 264.443 289.137C264.037 289.425 261.339 291.567 261.206 291.864C259.527 293.291 254.771 295.766 253.677 297.309L253.774 297.539C254.732 297.284 256.389 296.341 256.679 296.363L256.758 297.773L257.034 298.359C247.753 304.498 240.119 309.018 229.817 313.449C228.214 309.444 233.973 310.451 235.398 308.013C235.067 308.105 232.424 308.891 232.242 309.016C228.668 311.471 224.347 312.145 220.648 314.549C219.851 314.607 215.899 315.807 215.307 316.166L214.314 316.421C211.92 316.105 202.793 320.05 199.793 320.521C197.034 320.955 196.792 320.191 194.691 322.104C193.811 321.87 193.773 321.704 193.009 321.968C193.663 322.437 193.971 322.467 194.114 323.1L193.812 323.436L194.261 323.709C194.759 323.527 194.8 323.481 195.226 323.198L196.116 323.545C195.633 323.727 195.285 324.062 194.906 324.4C184.886 326.48 175.455 326.837 165.252 327.012C162.33 327.062 159.015 326.399 155.895 326.379C156.305 326.308 156.659 326.224 157.062 326.132L157.025 325.805C151.438 323.04 148.253 326.32 145.26 325.526C145.102 324.68 145.101 324.469 144.565 323.813C143.511 323.157 142.461 323.481 141.258 323.308C137.061 322.705 132.53 321.552 128.463 320.449C119.329 317.974 110.686 315.333 102.143 311.225C98.8773 309.655 95.301 308.181 91.9865 306.674C91.3449 306.382 90.293 305.368 89.3358 304.883C49.3416 284.719 21.2609 246.104 9.80206 203.269C7.15291 193.366 6.38148 182.242 4.80651 172.112C4.68863 171.353 4.40603 169.994 3.92655 169.42L3.196 169.793L2.97846 169.571C2.53083 168.027 2.67708 162.786 3.03694 161.228L3.48484 161.512C5.55988 158.375 5.32313 151.752 5.81984 147.944C9.00061 123.56 16.1831 99.8012 29.5838 79.0144C30.7415 77.2185 31.6988 75.3018 32.7728 73.4806C34.2544 70.9682 36.5673 68.7723 38.0422 66.2344C37.65 65.7678 37.3682 65.4119 37.0175 64.9136C38.1262 61.9887 44.0947 57.7098 45.143 55.1619C47.05 52.7873 48.7479 54.0372 50.1542 52.5292C59.003 43.0406 68.4706 35.8296 79.6261 29.0386C80.9609 27.6525 90.1112 22.916 92.1907 21.7469C93.2586 21.1465 95.1775 20.4113 96.2382 19.6057C99.0428 19.1659 103.784 16.5133 106.658 15.6765C108.071 15.2651 108.909 14.0321 110.666 14.469C111.325 14.2031 112.921 13.4413 113.487 13.2831C116.306 12.4947 119.243 11.2231 121.993 10.3991C126.894 8.93099 131.799 7.99565 136.826 7.218C140.142 6.70491 144.113 4.65024 147.673 4.55963C148.452 4.54261 151.116 4.05489 151.646 3.56797C151.031 3.54662 150.628 3.6622 150.289 3.34526C150.868 2.82043 151.834 2.99601 153.334 2.1577Z"/><path fill="#5AE1E5" d="M158.63 21.3377C237.72 18.2664 304.315 79.9101 307.352 159.001C310.389 238.092 248.716 304.661 169.624 307.663C90.5805 310.663 24.0621 249.037 21.0273 169.995C17.9924 90.9525 79.5897 24.4072 158.63 21.3377Z"/><path fill="#FEFEFE" d="M162.52 39.1799C231.68 38.2602 288.512 93.5403 289.506 162.7C290.5 231.859 235.282 288.75 166.123 289.819C96.8596 290.89 39.8625 235.568 38.8666 166.303C37.8706 97.0384 93.2536 40.1011 162.52 39.1799Z"/><path fill="#FF6D4F" d="M157.843 50.6665C220.59 47.0201 274.417 94.9193 278.084 157.665C281.75 220.41 233.868 274.252 171.124 277.939C108.351 281.627 54.4793 233.719 50.8113 170.945C47.1432 108.171 95.0687 54.3146 157.843 50.6665Z"/><path fill="#FEFEFE" d="M77.3043 163.602C81.6638 163.214 92.8571 163.644 92.5404 169.975C92.4812 171.105 91.9475 172.158 91.0707 172.874C88.5033 174.996 83.5419 173.455 80.0171 173.025C81.8686 178.726 83.3931 183.028 86.1347 188.444C96.6226 209.038 114.845 224.637 136.811 231.822C159.039 239.059 183.229 237.191 204.081 226.627C226.631 215.146 240.583 196.863 248.319 173.149C246.65 173.214 244.544 173.418 242.87 173.839C239.651 174.65 236.168 173.354 235.804 169.673C235.373 165.309 241.685 164.166 244.964 163.797C253.237 162.868 262.355 164.894 269.194 169.73C270.87 170.912 271.5 172.23 271.698 174.214C269.953 182.604 262.009 176.334 257.743 174.319C255.982 182.165 250.527 193.663 246.281 200.422C232.611 222.137 210.871 237.529 185.847 243.206C160.57 248.97 134.038 244.42 112.125 230.562C93.065 218.491 75.7222 196.532 70.7465 174.366C67.926 175.485 64.6212 177.91 61.961 178.523C58.4795 179.324 54.6968 174.041 57.8658 171.015C62.7897 166.314 70.6368 164.175 77.3043 163.602Z"/><path fill="#FEFEFE" d="M131.912 81.5147L132.411 81.5535C132.505 81.661 132.6 81.7685 132.695 81.876C132.422 91.0472 129.821 109.151 129.683 117.425C133.985 115.864 138.843 113.436 143.309 111.66C141.555 119.821 137.66 131.504 135.34 139.666C134.052 144.196 127.206 168.925 125.541 170.904C124.383 168.467 125.138 136.87 125.031 131.178C121.496 132.372 115.211 135.384 111.645 136.978C111.295 132.694 111.436 126.218 111.406 121.764C111.385 111.42 111.304 101.077 111.16 90.7351C118.048 87.595 124.965 84.5214 131.912 81.5147Z"/><path fill="#FEFEFE" d="M208.862 81.4992L209.267 81.4971C209.375 81.6202 209.483 81.7434 209.591 81.8666C209.198 91.3978 206.962 108.63 206.567 117.411C210.743 115.946 215.97 113.372 220.308 111.609C218.63 118.192 204.619 167.912 202.519 170.937C201.651 169.406 201.962 159.294 201.967 156.734L201.982 131.137C198.069 132.553 192.545 135.216 188.536 136.946C187.887 121.87 188.485 105.991 188.025 90.7541C194.946 87.6147 201.892 84.5297 208.862 81.4992Z"/><path fill="#010303" fill-opacity="0.89411765" d="M44.4233 55.0177L45.143 55.1619C44.0947 57.7098 38.1262 61.9887 37.0175 64.9136C37.3682 65.4119 37.65 65.7678 38.0422 66.2344C36.5673 68.7723 34.2544 70.9682 32.7728 73.4806C31.6988 75.3018 30.7415 77.2185 29.5838 79.0144C16.1831 99.8012 9.00061 123.56 5.81984 147.944C5.32313 151.752 5.55988 158.375 3.48484 161.512L3.03694 161.228C2.67708 162.786 2.53083 168.027 2.97846 169.571L3.196 169.793L3.92655 169.42C4.40603 169.994 4.68863 171.353 4.80651 172.112C6.38148 182.242 7.15291 193.366 9.80206 203.269C21.2609 246.104 49.3416 284.719 89.3358 304.883C90.293 305.368 91.3449 306.382 91.9865 306.674C95.301 308.181 98.8773 309.655 102.143 311.225C110.686 315.333 119.329 317.974 128.463 320.449C132.53 321.552 137.061 322.705 141.258 323.308C142.461 323.481 143.511 323.157 144.565 323.813C145.101 324.469 145.102 324.68 145.26 325.526C148.253 326.32 151.438 323.04 157.025 325.805L157.062 326.132C156.659 326.224 156.305 326.308 155.895 326.379C136.749 326.68 115.994 320.719 98.5948 313.023C94.8677 311.375 91.0695 310.051 87.7086 307.686C88.0122 307.395 87.9952 307.287 88.1327 306.877C86.8204 304.483 81.3768 301.417 78.9934 300.186C78.0233 299.685 77.3516 298.824 76.2887 298.568L76.0127 298.927C76.5379 300.039 78.6632 300.231 79.3604 301.506L77.9476 301.942C75.4075 300.923 67.9306 294.92 65.6098 293.155C38.3844 272.236 18.5111 243.207 8.85911 210.258C8.94498 209.689 8.92053 209.66 9.20764 209.136L10.2076 209.084C10.7083 208.173 9.32963 203.892 9.01208 202.582C9.02908 202.035 8.19165 198.444 8.00754 197.608C7.68219 196.653 7.46836 195.236 6.42392 195.097L5.86694 195.775L5.37707 195.418L5.03357 193.58L5.01188 192.571C5.21778 191.943 5.71444 191.336 5.76094 191.187C6.61697 188.445 5.86416 184.087 4.85651 181.497C4.79145 181.393 4.65552 181.318 4.54246 181.235C4.27114 181.755 4.24381 181.793 3.86879 182.245C3.34051 181.727 3.12695 179.148 2.98606 178.24C2.99371 177.719 2.5304 175.423 2.44252 174.564C2.24896 172.671 2.24613 171.16 2.23977 169.258C2.51745 167.414 2.17141 159.704 2.95711 158.561L3.73324 158.868C4.22709 158.344 5.38243 146.92 5.53619 145.29C5.71151 142.158 7.12194 134.784 7.67592 131.196C7.65781 131.084 8.91474 126.396 9.00156 125.524C9.53117 124.421 12.1887 114.268 11.8893 113.313L11.3298 113.747L10.98 113.687L10.7864 112.676C15.4688 97.2374 24.582 80.7006 34.0416 67.6175C37.1768 63.2814 40.9642 59.0934 44.4233 55.0177ZM18.0418 230.569C17.0998 228.674 17.9514 228.937 17.801 228.323C17.4694 226.97 16.2304 224.253 15.7149 222.917C15.2365 224.411 16.8881 229.699 18.0418 230.569ZM26.7706 246.714C26.9362 245.188 25.5329 243.655 24.5837 242.376C24.1514 244.43 25.4153 245.231 26.7706 246.714ZM4.15143 176.413C4.50863 175.012 4.28351 173.841 3.87411 172.464L3.60286 172.19C3.3863 173.443 2.72342 175.674 4.15143 176.413Z"/><path fill="#010303" fill-opacity="0.87450981" d="M15.7149 222.917C16.2304 224.253 17.4694 226.97 17.801 228.323C17.9514 228.937 17.0998 228.674 18.0418 230.569C16.8881 229.699 15.2365 224.411 15.7149 222.917Z"/><path fill="#010303" fill-opacity="0.85882354" d="M24.5837 242.376C25.5329 243.655 26.9362 245.188 26.7706 246.714C25.4153 245.231 24.1514 244.43 24.5837 242.376Z"/><path fill="#010303" fill-opacity="0.50980395" d="M3.60286 172.19L3.87411 172.464C4.28351 173.841 4.50863 175.012 4.15143 176.413C2.72342 175.674 3.3863 173.443 3.60286 172.19Z"/><path fill="#010303" fill-opacity="0.89019608" d="M314.559 109.386C314.659 108.19 314.208 106.664 314.575 106.009C315.355 105.979 316.126 106.633 316.838 107.092C320.877 116.753 323.089 127.249 324.82 137.536C325.465 141.37 326.637 146.837 326.925 150.624C326.093 150.027 326.325 150.374 326.105 149.285L325.984 149.676L325.496 149.721C325.511 150.626 325.614 152.152 325.348 152.952C325.342 149.205 324.878 148.307 323.382 145.171C323.075 144.527 323.724 141.686 323.092 140.38C323 140.883 322.952 141.219 322.778 141.709C322.807 140.476 322.205 138.8 322.005 137.512C320.976 130.888 319.766 124.784 317.47 118.468C316.438 115.629 316.099 112.176 314.559 109.386Z"/><defs><linearGradient id="gradient_0" gradientUnits="userSpaceOnUse" x1="249.72723" y1="29.610264" x2="251.34982" y2="27.12084"><stop offset="0" stop-color="black" stop-opacity="0.87450981"/><stop offset="1" stop-color="black" stop-opacity="0.90980393"/></linearGradient></defs><path fill="url(#gradient_0)" d="M231.151 15.9711C240.278 18.9845 257.354 30.2041 265.128 36.437C265.114 37.4454 265.161 38.4564 264.811 39.4068C262.843 38.08 260.844 36.6472 258.936 35.2475C251.466 29.7682 243.339 25.3706 235.239 20.9198C234.352 20.4325 233.371 20.1581 232.489 19.674C233.164 19.3131 233.692 20.1786 234.774 19.8598L234.92 19.3886C234.2 19.1926 233.825 19.1675 233.293 18.6814L233.309 18.4041C234.35 18.513 235.654 19.0978 236.664 19.4917L236.789 19.1552C235.267 17.6488 232 17.9471 231.151 15.9711Z"/><path fill="#010303" fill-opacity="0.86666667" d="M120.152 8.08826C122.939 6.26723 148.872 2.17663 153.334 2.1577C151.834 2.99601 150.868 2.82043 150.289 3.34526C150.628 3.6622 151.031 3.54662 151.646 3.56797C151.116 4.05489 148.452 4.54261 147.673 4.55963C144.113 4.65024 140.142 6.70491 136.826 7.218C131.799 7.99565 126.894 8.93099 121.993 10.3991C119.243 11.2231 116.306 12.4947 113.487 13.2831C112.921 13.4413 111.325 14.2031 110.666 14.469C108.909 14.0321 108.071 15.2651 106.658 15.6765C103.784 16.5133 99.0428 19.1659 96.2382 19.6057C98.954 17.8878 103.776 16.5102 106.671 14.8919C106.945 14.8876 110.248 13.8604 110.602 13.7024C112.525 12.842 124.856 9.97915 125.442 8.61733C124.439 8.37328 122.787 9.33817 121.98 9.33644C120.809 9.33393 121.805 8.53614 120.152 8.08826Z"/><defs><linearGradient id="gradient_1" gradientUnits="userSpaceOnUse" x1="313.1813" y1="90.720421" x2="306.09784" y2="98.746567"><stop offset="0" stop-color="black" stop-opacity="0.84313726"/><stop offset="1" stop-color="black" stop-opacity="0.89411765"/></linearGradient></defs><path fill="url(#gradient_1)" d="M305.406 83.0041C308.341 86.7337 315.344 102.36 316.838 107.092C316.126 106.633 315.355 105.979 314.575 106.009C314.208 106.664 314.659 108.19 314.559 109.386C313.331 107.939 310.53 98.1007 308.131 94.7098C307.874 91.9724 303.735 86.0703 303.089 83.3697C303.745 83.3526 304.545 83.1998 305.132 83.4381L305.406 83.0041Z"/><path fill="#010303" fill-opacity="0.89803922" d="M261.206 291.864C261.339 291.567 264.037 289.425 264.443 289.137C267.924 286.67 270.807 284.001 273.83 281.009C275.243 279.611 277.485 278.392 278.88 276.901C280.819 274.828 283 270.55 285.676 269.404C285.635 269.95 285.55 269.765 285.751 270.164C287.24 269.362 287.771 269.559 289.19 268.999C288.428 269.97 287.6 271.075 286.792 271.989C286.065 271.91 284.705 271.513 284.092 272.176C282.9 273.466 281.867 275.106 280.93 276.593L280.909 276.591L281.252 276.885L281.913 276.712L282.118 276.842C280.994 278.199 279.143 279.993 277.811 281.204L277.45 280.255C274.999 280.101 272.755 283.425 272.071 285.504C271.862 286.138 271.751 286.69 271.371 287.251C270.163 288.208 268.767 289.369 267.542 290.267C267.657 289.691 267.734 289.268 267.801 288.685C265.989 288.684 264.141 290.199 265.446 292.167C264.034 293.165 262.979 293.884 261.701 295.075C260.52 294.227 261.036 293.21 261.206 291.864Z"/><path fill="#010303" fill-opacity="0.78823531" d="M78.7975 28.8824L79.6261 29.0386C68.4706 35.8296 59.003 43.0406 50.1542 52.5292C48.7479 54.0372 47.05 52.7873 45.143 55.1619L44.4233 55.0177C50.9743 48.1743 57.9578 41.5207 65.4335 35.7004L65.9492 35.921L66.1766 36.5798L66.6722 36.7028C68.0433 36.3883 78.1292 29.8516 78.7975 28.8824Z"/><defs><linearGradient id="gradient_2" gradientUnits="userSpaceOnUse" x1="97.294945" y1="19.376066" x2="95.995995" y2="16.950384"><stop offset="0" stop-color="black" stop-opacity="0.86274511"/><stop offset="1" stop-color="black" stop-opacity="0.94117647"/></linearGradient></defs><path fill="url(#gradient_2)" d="M86.7514 21.6558C93.5271 17.9681 97.6677 16.1353 104.655 13.155C105.743 13.3739 106.42 13.7542 106.671 14.8919C103.776 16.5102 98.954 17.8878 96.2382 19.6057C95.1775 20.4113 93.2586 21.1465 92.1907 21.7469C90.1112 22.916 80.9609 27.6525 79.6261 29.0386L78.7975 28.8824C81.259 26.4487 84.0367 25.7442 86.7678 23.7899C87.4289 23.3169 87.3789 22.9605 87.4344 22.2998L86.7514 21.6558Z"/><path fill="#010303" fill-opacity="0.89411765" d="M273.097 43.0633C274.531 44.0678 284.576 54.2672 286.246 56.1972L286.022 56.8004C285.768 56.6662 285.528 56.5574 285.248 56.4867C284.722 56.891 284.542 57.5734 284.456 58.217C283.488 57.9365 277.525 51.1009 276.33 49.9261C274.167 47.7992 271.295 45.9091 269.636 43.3793C270.956 43.5841 272.064 43.6745 273.097 43.0633Z"/><defs><linearGradient id="gradient_3" gradientUnits="userSpaceOnUse" x1="77.141953" y1="29.994846" x2="76.065239" y2="28.44347"><stop offset="0" stop-color="black" stop-opacity="0.83529413"/><stop offset="1" stop-color="black" stop-opacity="0.89019608"/></linearGradient></defs><path fill="url(#gradient_3)" d="M65.4335 35.7004C67.0913 33.5816 83.856 23.2089 86.7514 21.6558L87.4344 22.2998C87.3789 22.9605 87.4289 23.3169 86.7678 23.7899C84.0367 25.7442 81.259 26.4487 78.7975 28.8824C78.1292 29.8516 68.0433 36.3883 66.6722 36.7028L66.1766 36.5798L65.9492 35.921L65.4335 35.7004Z"/><defs><linearGradient id="gradient_4" gradientUnits="userSpaceOnUse" x1="113.83859" y1="13.140676" x2="113.18992" y2="9.7579756"><stop offset="0" stop-color="black" stop-opacity="0.86274511"/><stop offset="1" stop-color="black" stop-opacity="0.90588236"/></linearGradient></defs><path fill="url(#gradient_4)" d="M120.152 8.08826C121.805 8.53614 120.809 9.33393 121.98 9.33644C122.787 9.33817 124.439 8.37328 125.442 8.61733C124.856 9.97915 112.525 12.842 110.602 13.7024C110.248 13.8604 106.945 14.8876 106.671 14.8919C106.42 13.7542 105.743 13.3739 104.655 13.155C108.216 11.8296 116.753 8.62315 120.152 8.08826Z"/><defs><linearGradient id="gradient_5" gradientUnits="userSpaceOnUse" x1="292.8132" y1="70.017723" x2="299.46747" y2="72.493683"><stop offset="0" stop-color="black" stop-opacity="0.85882354"/><stop offset="1" stop-color="black" stop-opacity="0.90196079"/></linearGradient></defs><path fill="url(#gradient_5)" d="M295.17 67.2165C296.105 68.1128 298.956 72.5326 299.919 73.9449C298.474 74.4675 298.129 75.205 298.888 76.7475C299.988 78.9831 301.602 81.3593 303.089 83.3697C303.735 86.0703 307.874 91.9724 308.131 94.7098L307.736 93.8883C307.381 93.6804 297.525 75.0018 295.391 72.7177C295.559 71.0013 292.984 69.9232 293.86 67.6481C294.342 67.2993 294.589 67.3097 295.17 67.2165Z"/><defs><linearGradient id="gradient_6" gradientUnits="userSpaceOnUse" x1="206.78572" y1="318.61383" x2="208.13702" y2="321.55685"><stop offset="0" stop-color="black" stop-opacity="0.83529413"/><stop offset="1" stop-color="black" stop-opacity="0.92941177"/></linearGradient></defs><path fill="url(#gradient_6)" d="M214.314 316.421L215.307 316.166C214.815 317.472 214.466 317.773 215.467 318.978C210.513 320.978 205.595 321.614 200.767 323.119C199.622 322.243 199.869 322.062 198.64 321.96L198.93 321.608C200.244 321.633 213.166 317.271 214.314 316.421Z"/><path fill="#010303" fill-opacity="0.9254902" d="M194.906 324.4C195.285 324.062 195.633 323.727 196.116 323.545L195.226 323.198C194.8 323.481 194.759 323.527 194.261 323.709L193.812 323.436L194.114 323.1C193.971 322.467 193.663 322.437 193.009 321.968C193.773 321.704 193.811 321.87 194.691 322.104C196.792 320.191 197.034 320.955 199.793 320.521C202.793 320.05 211.92 316.105 214.314 316.421C213.166 317.271 200.244 321.633 198.93 321.608L198.64 321.96C199.869 322.062 199.622 322.243 200.767 323.119C198.832 323.631 196.868 324.003 194.906 324.4Z"/><path fill="#010303" fill-opacity="0.86666667" d="M220.648 314.549C224.347 312.145 228.668 311.471 232.242 309.016C232.424 308.891 235.067 308.105 235.398 308.013C233.973 310.451 228.214 309.444 229.817 313.449C228.294 314.314 224.517 315.745 222.728 316.448L222.226 316.263C221.682 315.274 221.56 315.186 220.648 314.549Z"/><defs><linearGradient id="gradient_7" gradientUnits="userSpaceOnUse" x1="300.44223" y1="81.573509" x2="302.78357" y2="75.323761"><stop offset="0" stop-color="black" stop-opacity="0.84313726"/><stop offset="1" stop-color="black" stop-opacity="0.88235295"/></linearGradient></defs><path fill="url(#gradient_7)" d="M299.919 73.9449C301.073 75.4988 304.688 81.323 305.406 83.0041L305.132 83.4381C304.545 83.1998 303.745 83.3526 303.089 83.3697C301.602 81.3593 299.988 78.9831 298.888 76.7475C298.129 75.205 298.474 74.4675 299.919 73.9449Z"/><path fill="#010303" fill-opacity="0.31764707" d="M5.00433 136.596C5.20083 134.511 6.19525 128.461 7.01653 126.67C6.80907 127.833 6.24767 129.704 6.501 130.673C7.04908 131.198 6.831 131.035 7.67592 131.196C7.12194 134.784 5.71151 142.158 5.53619 145.29L4.89288 146.784C4.96721 146.267 5.21747 144.667 5.08472 144.235C4.20785 141.38 4.51713 139.482 5.00433 136.596Z"/><path fill="#010303" fill-opacity="0.72941178" d="M4.89288 146.784L5.53619 145.29C5.38243 146.92 4.22709 158.344 3.73324 158.868L2.95711 158.561C2.17141 159.704 2.51745 167.414 2.23977 169.258C1.44363 164.565 2.71799 154.424 3.21094 149.512C3.43192 148.472 3.29365 148.279 3.96341 147.609C4.42222 147.654 4.39078 147.647 4.82282 147.477L4.89288 146.784ZM3.83019 157.915C4.04307 156.629 4.6954 153.642 4.10658 152.589L3.84385 152.376C3.24315 153.96 2.83697 156.427 3.83019 157.915Z"/><path fill="#010303" fill-opacity="0.32156864" d="M3.84385 152.376L4.10658 152.589C4.6954 153.642 4.04307 156.629 3.83019 157.915C2.83697 156.427 3.24315 153.96 3.84385 152.376Z"/><defs><linearGradient id="gradient_8" gradientUnits="userSpaceOnUse" x1="82.298523" y1="302.07513" x2="81.360725" y2="303.56949"><stop offset="0" stop-color="black" stop-opacity="0.84313726"/><stop offset="1" stop-color="black" stop-opacity="0.92941177"/></linearGradient></defs><path fill="url(#gradient_8)" d="M77.9476 301.942L79.3604 301.506C78.6632 300.231 76.5379 300.039 76.0127 298.927L76.2887 298.568C77.3516 298.824 78.0233 299.685 78.9934 300.186C81.3768 301.417 86.8204 304.483 88.1327 306.877C87.9952 307.287 88.0122 307.395 87.7086 307.686C84.4095 305.708 81.2831 304.025 77.9476 301.942Z"/><path fill="#010303" fill-opacity="0.50588238" d="M7.25414 125.302C7.42541 124.11 10.3321 113.515 10.7864 112.676L10.98 113.687L11.3298 113.747L11.8893 113.313C12.1887 114.268 9.53117 124.421 9.00156 125.524C8.05757 125.209 8.09062 125.046 7.25414 125.302Z"/><path fill="#010303" fill-opacity="0.87843138" d="M265.128 36.437C267.56 38.5001 270.855 41.0064 273.097 43.0633C272.064 43.6745 270.956 43.5841 269.636 43.3793C268.157 42.2336 265.98 40.7467 264.811 39.4068C265.161 38.4564 265.114 37.4454 265.128 36.437Z"/><defs><linearGradient id="gradient_9" gradientUnits="userSpaceOnUse" x1="218.26807" y1="315.38574" x2="218.47429" y2="318.01688"><stop offset="0" stop-color="black" stop-opacity="0.84705883"/><stop offset="1" stop-color="black" stop-opacity="0.90196079"/></linearGradient></defs><path fill="url(#gradient_9)" d="M215.307 316.166C215.899 315.807 219.851 314.607 220.648 314.549C221.56 315.186 221.682 315.274 222.226 316.263L222.728 316.448C220.413 317.283 217.8 318.291 215.467 318.978C214.466 317.773 214.815 317.472 215.307 316.166Z"/><defs><linearGradient id="gradient_10" gradientUnits="userSpaceOnUse" x1="287.96628" y1="59.539673" x2="289.34433" y2="62.594688"><stop offset="0" stop-color="black" stop-opacity="0.86666667"/><stop offset="1" stop-color="black" stop-opacity="0.90196079"/></linearGradient></defs><path fill="url(#gradient_10)" d="M285.291 58.7543C288.463 59.6272 285.59 58.48 288.437 58.944C289.312 59.9313 290.48 61.1723 291.28 62.1807L290.939 62.7267L290.629 62.5713C289.885 63.1398 290.076 62.8315 289.89 63.7151C290.017 64.1189 290.072 64.5612 290.338 64.7857C290.811 65.9435 292.204 67.7506 292.949 69.2928C291.752 68.5812 286.141 60.2529 285.291 58.7543Z"/><path fill="#010303" fill-opacity="0.90980393" d="M256.758 297.773L256.679 296.363C256.389 296.341 254.732 297.284 253.774 297.539L253.677 297.309C254.771 295.766 259.527 293.291 261.206 291.864C261.036 293.21 260.52 294.227 261.701 295.075L259.293 296.698C259.107 296.011 259.125 295.875 258.617 295.431L257.934 295.303C257.263 295.765 257.068 295.983 256.909 296.811C256.85 297.13 256.8 297.451 256.758 297.773Z"/><path fill="#010303" fill-opacity="0.50588238" d="M5.37707 195.418L5.86694 195.775L6.42392 195.097C7.46836 195.236 7.68219 196.653 8.00754 197.608C8.05839 198.496 8.33558 200.887 8.21064 201.556C7.83989 201.951 7.807 202.028 7.32474 202.301C7.2322 203.099 7.25095 203.528 7.27386 204.322C6.87054 202.55 5.37149 196.827 5.37707 195.418Z"/><path fill="#010303" fill-opacity="0.48627451" d="M271.371 287.251C271.751 286.69 271.862 286.138 272.071 285.504C272.755 283.425 274.999 280.101 277.45 280.255L277.811 281.204C276.058 283.043 273.368 285.587 271.371 287.251Z"/><path fill="#010303" fill-opacity="0.90196079" d="M292.838 64.3095C293.441 65.0344 294.715 66.4866 295.17 67.2165C294.589 67.3097 294.342 67.2993 293.86 67.6481C292.984 69.9232 295.559 71.0013 295.391 72.7177C294.757 72.5712 293.167 69.9271 292.949 69.2928C292.204 67.7506 290.811 65.9435 290.338 64.7857C292.029 65.3976 291.341 65.8957 292.838 64.3095Z"/><path fill="#010303" fill-opacity="0.34117648" d="M2.98606 178.24C3.12695 179.148 3.34051 181.727 3.86879 182.245C4.24381 181.793 4.27114 181.755 4.54246 181.235C4.65552 181.318 4.79145 181.393 4.85651 181.497L4.86432 181.734C4.9723 184.606 6.06338 184.523 4.35886 186.879C4.13239 187.192 4.79383 191.629 5.01188 192.571L5.03357 193.58C4.16737 191.275 2.93309 180.825 2.98606 178.24Z"/><path fill="#010303" fill-opacity="0.65490198" d="M282.118 276.842L281.913 276.712L281.252 276.885L280.909 276.591L280.93 276.593C281.867 275.106 282.9 273.466 284.092 272.176C284.705 271.513 286.065 271.91 286.792 271.989C286.13 272.718 282.786 276.473 282.118 276.842Z"/><path fill="#010303" fill-opacity="0.3764706" d="M196.99 5.15531C197.508 5.1729 205.022 6.74237 205.444 6.93604C203.451 8.02041 197.621 7.12015 195.304 6.7275C196.24 6.24665 197.12 6.22037 198.216 5.90651L198.17 5.60369L196.99 5.15531Z"/><path fill="#010303" fill-opacity="0.57254905" d="M4.85651 181.497C5.86416 184.087 6.61697 188.445 5.76094 191.187C5.71444 191.336 5.21778 191.943 5.01188 192.571C4.79383 191.629 4.13239 187.192 4.35886 186.879C6.06338 184.523 4.9723 184.606 4.86432 181.734L4.85651 181.497Z"/><path fill="#010303" fill-opacity="0.39215687" d="M7.25414 125.302C8.09062 125.046 8.05757 125.209 9.00156 125.524C8.91474 126.396 7.65781 131.084 7.67592 131.196C6.831 131.035 7.04908 131.198 6.501 130.673C6.24767 129.704 6.80907 127.833 7.01653 126.67C7.04958 126.582 7.22699 125.466 7.25414 125.302Z"/><path fill="#010303" fill-opacity="0.21176471" d="M3.21094 149.512C3.0036 147.503 4.27156 138.41 5.00433 136.596C4.51713 139.482 4.20785 141.38 5.08472 144.235C5.21747 144.667 4.96721 146.267 4.89288 146.784L4.82282 147.477C4.39078 147.647 4.42222 147.654 3.96341 147.609C3.29365 148.279 3.43192 148.472 3.21094 149.512Z"/><path fill="#010303" fill-opacity="0.79215688" d="M9.01208 202.582C9.32963 203.892 10.7083 208.173 10.2076 209.084L9.20764 209.136C8.92053 209.66 8.94498 209.689 8.85911 210.258C8.62861 209.563 8.43915 208.625 8.26891 207.894C8.11865 205.143 9.44418 206.441 9.01208 202.582Z"/><path fill="#010303" fill-opacity="0.87843138" d="M289.45 268.646C286.852 267.224 289.423 264.783 291.406 265.118L291.828 265.952C291.018 266.99 290.363 267.69 289.45 268.646Z"/><path fill="#010303" fill-opacity="0.64313728" d="M189.379 5.08059C191.239 5.13206 192.197 5.44096 193.828 5.59045C194.912 5.68976 195.148 4.77487 196.99 5.15531L198.17 5.60369L198.216 5.90651C197.12 6.22037 196.24 6.24665 195.304 6.7275C193.845 6.26211 190.16 5.68901 189.379 5.08059Z"/><path fill="#010303" fill-opacity="0.80392158" d="M286.246 56.1972C287.143 56.8358 287.813 58.0054 288.437 58.944C285.59 58.48 288.463 59.6272 285.291 58.7543L284.456 58.217C284.542 57.5734 284.722 56.891 285.248 56.4867C285.528 56.5574 285.768 56.6662 286.022 56.8004L286.246 56.1972Z"/><path fill="#010303" fill-opacity="0.81568629" d="M291.28 62.1807C292.099 62.8624 292.32 63.381 292.838 64.3095C291.341 65.8957 292.029 65.3976 290.338 64.7857C290.072 64.5612 290.017 64.1189 289.89 63.7151C290.076 62.8315 289.885 63.1398 290.629 62.5713L290.939 62.7267L291.28 62.1807Z"/><path fill="#010303" fill-opacity="0.86666667" d="M265.446 292.167C264.141 290.199 265.989 288.684 267.801 288.685C267.734 289.268 267.657 289.691 267.542 290.267C266.746 291.263 266.488 291.422 265.446 292.167Z"/><path fill="#010303" fill-opacity="0.87058824" d="M256.758 297.773C256.8 297.451 256.85 297.13 256.909 296.811C257.068 295.983 257.263 295.765 257.934 295.303L258.617 295.431C259.125 295.875 259.107 296.011 259.293 296.698C258.413 297.578 258.114 297.729 257.034 298.359L256.758 297.773Z"/><path fill="#010303" fill-opacity="0.71764708" d="M8.00754 197.608C8.19165 198.444 9.02908 202.035 9.01208 202.582C8.46924 203.363 8.2961 203.688 7.48993 204.244L7.27229 204.816L7.27386 204.322C7.25095 203.528 7.2322 203.099 7.32474 202.301C7.807 202.028 7.83989 201.951 8.21064 201.556C8.33558 200.887 8.05839 198.496 8.00754 197.608Z"/><path fill="#010303" fill-opacity="0.60784316" d="M7.27229 204.816L7.48993 204.244C8.2961 203.688 8.46924 203.363 9.01208 202.582C9.44418 206.441 8.11865 205.143 8.26891 207.894C8.01519 206.904 7.60723 205.795 7.27229 204.816Z"/></svg>